<?xml version="1.0" encoding="UTF-8" standalone="no"?>
<svg
   xmlns:dc="http://purl.org/dc/elements/1.1/"
   xmlns:cc="http://creativecommons.org/ns#"
   xmlns:rdf="http://www.w3.org/1999/02/22-rdf-syntax-ns#"
   xmlns:svg="http://www.w3.org/2000/svg"
   xmlns="http://www.w3.org/2000/svg"
   xmlns:sodipodi="http://sodipodi.sourceforge.net/DTD/sodipodi-0.dtd"
   xmlns:inkscape="http://www.inkscape.org/namespaces/inkscape"
   version="1.1"
   x="0px"
   y="0px"
   viewBox="0 0 47.229527 47.408859"
   enable-background="new 0 0 96 96"
   xml:space="preserve"
   id="svg2"
   inkscape:version="0.91 r13725"
   sodipodi:docname="connect.svg"
   width="47.229527"
   height="47.408859"><metadata
     id="metadata18"><rdf:RDF><cc:Work
         rdf:about=""><dc:format>image/svg+xml</dc:format><dc:type
           rdf:resource="http://purl.org/dc/dcmitype/StillImage" /><dc:title></dc:title></cc:Work></rdf:RDF></metadata><defs
     id="defs16" /><sodipodi:namedview
     pagecolor="#ffffff"
     bordercolor="#666666"
     borderopacity="1"
     objecttolerance="10"
     gridtolerance="10"
     guidetolerance="10"
     inkscape:pageopacity="0"
     inkscape:pageshadow="2"
     inkscape:window-width="690"
     inkscape:window-height="480"
     id="namedview14"
     showgrid="false"
     fit-margin-top="0"
     fit-margin-left="0"
     fit-margin-right="0"
     fit-margin-bottom="0"
     inkscape:zoom="1.9666667"
     inkscape:cx="23.670162"
     inkscape:cy="11.70443"
     inkscape:window-x="0"
     inkscape:window-y="0"
     inkscape:window-maximized="0"
     inkscape:current-layer="svg2" /><g
     id="g4"
     transform="translate(-24.329838,-24.29557)"><path
       d="m 68.1,28.3 c -2.4,-2.5 -5.6,-3.9 -9.1,-4 -3.7,-0.1 -7.1,1.5 -9.7,4.1 l -6,6 c 1.4,-0.3 2.9,-0.3 4.3,-0.1 0.7,0.1 1.3,0.2 2,0.4 0,0 0,0 0,0 0.8,0.3 1.7,0.1 2.3,-0.5 l 1.6,-1.6 c 1.2,-1.2 2.8,-2.1 4.6,-2.2 2.3,-0.2 4.4,0.7 5.9,2.5 2.4,2.8 2,7 -0.6,9.6 l -8,8 c -0.8,0.8 -1.9,1.4 -3,1.8 -0.6,0.2 -1.1,0.2 -1.7,0.3 l -0.2,0 c -0.5,0 -0.9,0 -1.4,-0.1 -1.3,-0.3 -2.5,-0.9 -3.5,-1.9 -0.8,-0.8 -1.4,-1.9 -1.8,-3 -0.3,0.2 -0.6,0.4 -0.9,0.7 l -1.6,1.6 c -1.4,1.4 -1.4,3.6 -0.1,4.9 0,0 0,0 0,0 1.1,1.1 2.3,1.9 3.6,2.5 0.5,0.3 1.1,0.5 1.8,0.7 0.7,0.2 1.3,0.4 2,0.4 0.6,0.1 1.2,0.1 1.8,0.1 2.1,0 4.2,-0.5 6.1,-1.5 1,-0.5 1.9,-1.2 2.6,-1.9 0.2,-0.1 0.3,-0.3 0.5,-0.4 l 7.9,-7.9 C 72.6,41.7 73,33.5 68.1,28.3 Z"
       id="path6"
       inkscape:connector-curvature="0" /><path
       d="m 48.7,61.8 c -0.7,-0.1 -1.3,-0.2 -2,-0.4 0,0 0,0 0,0 -1,-0.3 -2.1,-0.1 -2.9,0.7 l -1.5,1.5 c -1.2,1.2 -2.8,2 -4.5,2.2 -2.1,0.2 -4.1,-0.5 -5.5,-2 -1.5,-1.5 -2.2,-3.5 -2,-5.5 0.1,-1.7 1,-3.3 2.2,-4.5 l 8,-8 c 0.8,-0.8 1.9,-1.4 3,-1.8 0.5,-0.2 1.1,-0.2 1.7,-0.3 l 0.3,0 c 0.5,0 0.9,0 1.4,0.1 1.3,0.3 2.5,0.9 3.5,1.9 0.8,0.8 1.4,1.9 1.7,3 0.3,-0.2 0.6,-0.4 0.8,-0.7 l 1.6,-1.6 c 1.3,-1.3 1.4,-3.6 0.1,-4.9 0,0 0,0 0,0 -1.1,-1.1 -2.3,-1.9 -3.6,-2.5 -0.5,-0.3 -1.1,-0.5 -1.8,-0.7 -0.7,-0.2 -1.3,-0.4 -2,-0.4 -2.7,-0.4 -5.5,0.1 -7.9,1.4 -1,0.5 -1.9,1.2 -2.6,1.8 -0.2,0.1 -0.3,0.2 -0.5,0.4 l -7.9,7.9 c -5,5 -5.4,13.2 -0.5,18.3 2.4,2.5 5.6,3.9 9.1,4 3.7,0.1 7.1,-1.5 9.7,-4.1 l 5.8,-5.8 c -0.7,0.1 -1.3,0.2 -2,0.2 -0.5,-0.1 -1.1,-0.1 -1.7,-0.2 z"
       id="path8"
       inkscape:connector-curvature="0" /></g></svg>