<?xml version="1.0" encoding="UTF-8" standalone="no"?>
<!-- Created with Inkscape (http://www.inkscape.org/) -->

<svg
   xmlns:dc="http://purl.org/dc/elements/1.1/"
   xmlns:cc="http://creativecommons.org/ns#"
   xmlns:rdf="http://www.w3.org/1999/02/22-rdf-syntax-ns#"
   xmlns:svg="http://www.w3.org/2000/svg"
   xmlns="http://www.w3.org/2000/svg"
   xmlns:sodipodi="http://sodipodi.sourceforge.net/DTD/sodipodi-0.dtd"
   xmlns:inkscape="http://www.inkscape.org/namespaces/inkscape"
   width="28.269918mm"
   height="14.261818mm"
   viewBox="0 0 100.169 50.534"
   id="svg2"
   version="1.1"
   inkscape:version="0.91 r13725"
   sodipodi:docname="ping.svg">
  <defs
     id="defs4" />
  <sodipodi:namedview
     id="base"
     pagecolor="#ffffff"
     bordercolor="#666666"
     borderopacity="1.0"
     inkscape:pageopacity="0.0"
     inkscape:pageshadow="2"
     inkscape:zoom="1.979899"
     inkscape:cx="58.33241"
     inkscape:cy="21.192644"
     inkscape:document-units="px"
     inkscape:current-layer="layer1"
     showgrid="false"
     inkscape:window-width="1007"
     inkscape:window-height="814"
     inkscape:window-x="883"
     inkscape:window-y="83"
     inkscape:window-maximized="0"
     borderlayer="false"
     showborder="false"
     fit-margin-top="0"
     fit-margin-left="0"
     fit-margin-right="0"
     fit-margin-bottom="0" />
  <metadata
     id="metadata7">
    <rdf:RDF>
      <cc:Work
         rdf:about="">
        <dc:format>image/svg+xml</dc:format>
        <dc:type
           rdf:resource="http://purl.org/dc/dcmitype/StillImage" />
        <dc:title></dc:title>
      </cc:Work>
    </rdf:RDF>
  </metadata>
  <g
     inkscape:label="Layer 1"
     inkscape:groupmode="layer"
     id="layer1"
     transform="translate(-129.981,-331.59228)">
    <g
       id="g3337"
       transform="translate(129.85,331.59228)">
      <g
         id="g3339">
        <path
           id="path3341"
           d="m 11.85,19.985 c 3.98,0 6.971,1.031 8.977,3.09 1.66,1.662 2.491,3.809 2.491,6.441 0,2.632 -0.831,4.781 -2.491,6.439 -2.006,2.063 -4.996,3.093 -8.977,3.093 l -7.812,0 0,9.188 c 0,0.543 -0.192,1.002 -0.58,1.373 C 3.074,49.98 2.605,50.168 2.063,50.168 1.518,50.168 1.061,49.98 0.69,49.609 0.317,49.238 0.131,48.779 0.131,48.236 l 0,-26.277 c 0,-0.543 0.186,-1.008 0.559,-1.394 0.371,-0.386 0.828,-0.58 1.373,-0.58 l 9.787,0 z m -0.384,15.371 c 2.948,0 5.08,-0.629 6.397,-1.889 1.03,-0.974 1.544,-2.291 1.544,-3.951 0,-2.662 -1.331,-4.438 -3.993,-5.325 -1.027,-0.342 -2.348,-0.516 -3.948,-0.516 l -7.428,0 0,11.68 7.428,0 z"
           inkscape:connector-curvature="0" />
        <path
           id="path3343"
           d="m 65.26,19.77 c 0.546,0 1.014,0.194 1.398,0.58 0.384,0.386 0.58,0.853 0.58,1.396 l 0,25.63 c 0,0.774 -0.28,1.433 -0.839,1.976 -0.56,0.544 -1.223,0.816 -1.995,0.816 l -0.514,0 c -0.947,0 -1.705,-0.387 -2.278,-1.16 l -16.618,-24 0,23.229 c 0,0.543 -0.188,1.002 -0.576,1.373 -0.388,0.371 -0.853,0.559 -1.394,0.559 -0.546,0 -1.007,-0.188 -1.377,-0.559 -0.37,-0.371 -0.56,-0.83 -0.56,-1.373 l 0,-25.633 c 0,-0.772 0.273,-1.438 0.818,-1.997 0.545,-0.557 1.201,-0.837 1.974,-0.837 l 0.56,0 c 0.884,0 1.674,0.43 2.358,1.288 l 16.536,23.872 0,-23.184 c 0,-0.543 0.185,-1.01 0.559,-1.396 0.369,-0.386 0.827,-0.58 1.368,-0.58 z"
           inkscape:connector-curvature="0" />
        <path
           id="path3345"
           d="m 89.349,46.69 c 2.69,0 5.192,-0.629 7.512,-1.889 l 0,-7.771 -7.082,0 c -0.485,0 -0.905,-0.173 -1.247,-0.515 -0.343,-0.345 -0.514,-0.759 -0.514,-1.246 0,-0.486 0.171,-0.902 0.514,-1.246 0.342,-0.342 0.762,-0.516 1.247,-0.516 l 8.459,0 c 0.573,0 1.056,0.201 1.46,0.602 0.398,0.402 0.602,0.887 0.602,1.461 l 0,9.746 c 0,0.602 -0.154,1.137 -0.454,1.609 -0.301,0.473 -0.692,0.824 -1.181,1.053 -3.205,1.603 -6.482,2.404 -9.833,2.404 -4.493,0 -8.127,-1.431 -10.901,-4.295 -2.781,-2.889 -4.165,-6.582 -4.165,-11.076 0,-4.552 1.443,-8.301 4.333,-11.249 2.777,-2.806 6.313,-4.208 10.607,-4.208 2.433,0 4.486,0.3 6.16,0.901 1.674,0.601 3.184,1.332 4.532,2.191 0.569,0.314 0.856,0.765 0.856,1.352 0,0.587 -0.158,1.059 -0.473,1.417 -0.314,0.358 -0.695,0.536 -1.139,0.536 -0.444,0 -0.811,-0.071 -1.094,-0.215 -2.777,-1.602 -5.58,-2.404 -8.417,-2.404 -3.319,0 -6.038,1.003 -8.155,3.005 -2.205,2.119 -3.306,5.011 -3.306,8.673 0,3.377 1.027,6.154 3.089,8.328 2.118,2.236 4.984,3.352 8.59,3.352 z"
           inkscape:connector-curvature="0" />
        <path
           id="path3347"
           d="m 33.304,21.767 c 0,0.601 -0.217,1.116 -0.646,1.546 -0.427,0.428 -0.943,0.643 -1.545,0.643 l -0.258,0 c -0.602,0 -1.115,-0.215 -1.545,-0.643 -0.43,-0.43 -0.643,-0.945 -0.643,-1.546 l 0,-0.171 c 0,-0.601 0.213,-1.116 0.643,-1.546 0.43,-0.43 0.943,-0.645 1.545,-0.645 l 0.258,0 c 0.602,0 1.118,0.215 1.545,0.645 0.43,0.43 0.646,0.945 0.646,1.546 l 0,0.171 z m -3.735,6.999 c 0.37,-0.372 0.835,-0.559 1.395,-0.559 0.559,0 1.023,0.187 1.394,0.559 0.374,0.372 0.56,0.844 0.56,1.417 l 0,18.419 c 0,0.543 -0.186,1.002 -0.56,1.373 -0.37,0.371 -0.835,0.559 -1.394,0.559 -0.56,0 -1.024,-0.188 -1.395,-0.559 -0.374,-0.371 -0.559,-0.83 -0.559,-1.373 l 0,-18.419 c 0,-0.574 0.185,-1.045 0.559,-1.417 z"
           inkscape:connector-curvature="0" />
      </g>
      <path
         id="path3349"
         d="m 21.4,6.833 c -0.921,0.622 -1.767,1.326 -2.536,2.096 l 2.412,2.412 c 0.617,-0.617 1.278,-1.197 2.017,-1.696 2.276,-1.538 4.937,-2.35 7.692,-2.35 3.793,0 7.231,1.542 9.723,4.033 L 43.103,8.933 C 39.999,5.829 35.711,3.907 30.985,3.907 27.548,3.906 24.235,4.918 21.4,6.833 Z"
         inkscape:connector-curvature="0"
         style="fill:none" />
      <path
         id="path3351"
         d="m 30.985,11.2 c -1.974,0 -3.877,0.582 -5.505,1.681 -0.53,0.358 -1.004,0.773 -1.447,1.216 l 6.952,6.952 6.962,-6.962 C 36.163,12.305 33.701,11.2 30.985,11.2 Z"
         inkscape:connector-curvature="0"
         style="fill:none" />
      <path
         id="path3353"
         d="m 23.292,9.644 c -0.738,0.499 -1.399,1.079 -2.017,1.696 l 2.757,2.758 c 0.443,-0.443 0.917,-0.858 1.447,-1.216 1.628,-1.1 3.531,-1.681 5.505,-1.681 2.716,0 5.178,1.104 6.962,2.888 l 2.761,-2.761 C 38.216,8.837 34.777,7.295 30.984,7.295 28.229,7.294 25.569,8.106 23.292,9.644 Z"
         inkscape:connector-curvature="0" />
      <path
         id="path3355"
         d="m 21.4,6.833 c 2.835,-1.915 6.148,-2.926 9.584,-2.926 4.727,0 9.014,1.922 12.118,5.026 0,0 0,0 0,0 L 45.863,6.172 C 42.051,2.361 36.788,0 30.984,0 26.766,0 22.697,1.243 19.213,3.596 18.084,4.359 17.046,5.223 16.102,6.167 l 2.762,2.762 C 19.633,8.159 20.479,7.455 21.4,6.833 Z"
         inkscape:connector-curvature="0" />
      <g
         id="g3357" />
    </g>
  </g>
</svg>
